<mxfile host="app.diagrams.net" modified="2020-12-16T11:27:53.637Z" agent="5.0 (Windows NT 10.0; Win64; x64) AppleWebKit/537.36 (KHTML, like Gecko) Chrome/87.0.4280.88 Safari/537.36" etag="fS_GdeZod5YkyGS5p0m0" version="14.0.3" type="github">
  <diagram id="hNXSsVTtNlDehrTXKesi" name="history">
    <mxGraphModel dx="1022" dy="381" grid="1" gridSize="10" guides="1" tooltips="1" connect="1" arrows="1" fold="1" page="1" pageScale="1" pageWidth="850" pageHeight="1100" math="0" shadow="0">
      <root>
        <mxCell id="x-tMEXo466bzIukRYSVs-0" />
        <mxCell id="x-tMEXo466bzIukRYSVs-1" parent="x-tMEXo466bzIukRYSVs-0" />
        <mxCell id="VeFoJCRVOljZTH2fcLI_-4" value="" style="fillColor=#E6E6E6;rounded=0;strokeColor=none;rotation=90;" parent="x-tMEXo466bzIukRYSVs-1" vertex="1">
          <mxGeometry x="880.38" y="302.13" width="151.25" height="10" as="geometry" />
        </mxCell>
        <mxCell id="VeFoJCRVOljZTH2fcLI_-6" value="" style="fillColor=#E6E6E6;rounded=0;strokeColor=none;" parent="x-tMEXo466bzIukRYSVs-1" vertex="1">
          <mxGeometry x="128" y="375" width="832" height="10" as="geometry" />
        </mxCell>
        <mxCell id="-Kwli7zUqtT9L6henqgJ-0" value="" style="fillColor=#E6E6E6;rounded=0;strokeColor=none;" parent="x-tMEXo466bzIukRYSVs-1" vertex="1">
          <mxGeometry x="128" y="230" width="832" height="10" as="geometry" />
        </mxCell>
        <mxCell id="-Kwli7zUqtT9L6henqgJ-1" value="June 2018" style="shape=mxgraph.infographic.ribbonSimple;notch1=0;notch2=0;notch=0;html=1;fillColor=#1699D3;strokeColor=none;shadow=0;fontSize=14;fontColor=#FFFFFF;align=center;spacingLeft=0;fontStyle=1;" parent="x-tMEXo466bzIukRYSVs-1" vertex="1">
          <mxGeometry x="200" y="220" width="80" height="30" as="geometry" />
        </mxCell>
        <mxCell id="-Kwli7zUqtT9L6henqgJ-2" value="March 2019" style="shape=mxgraph.infographic.ribbonSimple;notch1=0;notch2=0;notch=0;html=1;fillColor=#B2CFF7;strokeColor=none;shadow=0;fontSize=14;fontColor=#FFFFFF;align=center;spacingLeft=0;fontStyle=1;" parent="x-tMEXo466bzIukRYSVs-1" vertex="1">
          <mxGeometry x="340" y="220" width="80" height="30" as="geometry" />
        </mxCell>
        <mxCell id="-Kwli7zUqtT9L6henqgJ-3" value="June 2019" style="shape=mxgraph.infographic.ribbonSimple;notch1=0;notch2=0;notch=0;html=1;fillColor=#99CCFF;strokeColor=none;shadow=0;fontSize=14;fontColor=#FFFFFF;align=center;spacingLeft=0;fontStyle=1;" parent="x-tMEXo466bzIukRYSVs-1" vertex="1">
          <mxGeometry x="575.5" y="220" width="80" height="30" as="geometry" />
        </mxCell>
        <mxCell id="-Kwli7zUqtT9L6henqgJ-4" value="July 2019" style="shape=mxgraph.infographic.ribbonSimple;notch1=0;notch2=0;notch=0;html=1;fillColor=#10739E;strokeColor=none;shadow=0;fontSize=14;fontColor=#FFFFFF;align=center;spacingLeft=0;fontStyle=1;opacity=80;" parent="x-tMEXo466bzIukRYSVs-1" vertex="1">
          <mxGeometry x="703" y="220" width="80" height="30" as="geometry" />
        </mxCell>
        <mxCell id="-Kwli7zUqtT9L6henqgJ-5" value="April 2019" style="shape=mxgraph.infographic.ribbonSimple;notch1=0;notch2=0;notch=0;html=1;fillColor=#9EB7DB;strokeColor=none;shadow=0;fontSize=14;fontColor=#FFFFFF;align=center;spacingLeft=0;fontStyle=1;" parent="x-tMEXo466bzIukRYSVs-1" vertex="1">
          <mxGeometry x="450" y="220" width="80" height="30" as="geometry" />
        </mxCell>
        <mxCell id="-Kwli7zUqtT9L6henqgJ-6" value="&lt;ul style=&quot;font-family: &amp;#34;helvetica&amp;#34;&quot;&gt;&lt;li&gt;&lt;font style=&quot;font-size: 12px&quot;&gt;Used in production at JD.com&lt;/font&gt;&lt;/li&gt;&lt;/ul&gt;" style="rounded=0;strokeColor=none;fillColor=none;align=left;arcSize=12;verticalAlign=bottom;whiteSpace=wrap;html=1;fontSize=10;spacing=0;spacingRight=10;spacingLeft=0;fontColor=#4D4D4D;textOpacity=90;" parent="x-tMEXo466bzIukRYSVs-1" vertex="1">
          <mxGeometry x="132.81" y="171" width="214.37" height="41" as="geometry" />
        </mxCell>
        <mxCell id="-Kwli7zUqtT9L6henqgJ-7" value="&lt;ul style=&quot;font-family: &amp;#34;helvetica&amp;#34; ; font-size: 12px&quot;&gt;&lt;li&gt;Open sourced at github.com&lt;/li&gt;&lt;/ul&gt;" style="rounded=0;strokeColor=none;fillColor=none;align=left;arcSize=12;verticalAlign=top;whiteSpace=wrap;html=1;fontSize=10;spacing=0;fontColor=#4D4D4D;spacingRight=10;textOpacity=90;" parent="x-tMEXo466bzIukRYSVs-1" vertex="1">
          <mxGeometry x="276.63" y="256" width="207.75" height="43" as="geometry" />
        </mxCell>
        <mxCell id="-Kwli7zUqtT9L6henqgJ-8" value="&lt;ul style=&quot;font-size: 12px ; font-family: &amp;#34;helvetica&amp;#34;&quot;&gt;&lt;li&gt;Presentation to CNCF storage SIG&lt;/li&gt;&lt;li&gt;First external user&lt;/li&gt;&lt;/ul&gt;" style="rounded=0;strokeColor=none;fillColor=none;align=left;arcSize=12;verticalAlign=bottom;whiteSpace=wrap;html=1;fontSize=10;spacing=0;fontColor=#4D4D4D;spacingRight=10;textOpacity=90;" parent="x-tMEXo466bzIukRYSVs-1" vertex="1">
          <mxGeometry x="530" y="265" width="170.5" height="58" as="geometry" />
        </mxCell>
        <mxCell id="-Kwli7zUqtT9L6henqgJ-9" value="&lt;ul style=&quot;font-family: &amp;#34;helvetica&amp;#34;&quot;&gt;&lt;li&gt;SIGMOD&#39;19 industrial paper&lt;/li&gt;&lt;/ul&gt;" style="rounded=0;strokeColor=none;fillColor=none;align=left;arcSize=12;verticalAlign=top;whiteSpace=wrap;html=1;fontSize=12;spacing=0;fontColor=#4D4D4D;spacingTop=0;spacingRight=10;textOpacity=90;" parent="x-tMEXo466bzIukRYSVs-1" vertex="1">
          <mxGeometry x="636.25" y="174" width="213.5" height="49" as="geometry" />
        </mxCell>
        <mxCell id="-Kwli7zUqtT9L6henqgJ-11" value="Aug 2019" style="shape=mxgraph.infographic.ribbonSimple;notch1=0;notch2=0;notch=0;html=1;fillColor=#A9C4EB;strokeColor=none;shadow=0;fontSize=14;fontColor=#FFFFFF;align=center;spacingLeft=0;fontStyle=1;opacity=90;" parent="x-tMEXo466bzIukRYSVs-1" vertex="1">
          <mxGeometry x="832.5" y="220" width="80" height="30" as="geometry" />
        </mxCell>
        <mxCell id="75KzgoXJ_HcJJNtGDVDj-0" value="" style="triangle;whiteSpace=wrap;html=1;rounded=0;shadow=0;strokeColor=none;strokeWidth=15;fillColor=#1699D3;gradientColor=none;fontSize=10;fontColor=#4D4D4D;align=center;rotation=-90;" parent="x-tMEXo466bzIukRYSVs-1" vertex="1">
          <mxGeometry x="232.5" y="205" width="15" height="25" as="geometry" />
        </mxCell>
        <mxCell id="75KzgoXJ_HcJJNtGDVDj-1" value="" style="triangle;whiteSpace=wrap;html=1;rounded=0;shadow=0;strokeColor=none;strokeWidth=15;fillColor=#B2CFF7;gradientColor=none;fontSize=10;fontColor=#4D4D4D;align=center;rotation=-90;direction=west;" parent="x-tMEXo466bzIukRYSVs-1" vertex="1">
          <mxGeometry x="373" y="243" width="15" height="25" as="geometry" />
        </mxCell>
        <mxCell id="75KzgoXJ_HcJJNtGDVDj-2" value="" style="triangle;whiteSpace=wrap;html=1;rounded=0;shadow=0;strokeColor=none;strokeWidth=15;fillColor=#99CCFF;gradientColor=none;fontSize=10;fontColor=#4D4D4D;align=center;rotation=90;" parent="x-tMEXo466bzIukRYSVs-1" vertex="1">
          <mxGeometry x="608" y="240" width="15" height="25" as="geometry" />
        </mxCell>
        <mxCell id="75KzgoXJ_HcJJNtGDVDj-3" value="" style="triangle;whiteSpace=wrap;html=1;rounded=0;shadow=0;strokeColor=none;strokeWidth=15;fillColor=#10739E;gradientColor=none;fontSize=10;fontColor=#4D4D4D;align=center;rotation=90;direction=west;" parent="x-tMEXo466bzIukRYSVs-1" vertex="1">
          <mxGeometry x="735.5" y="203" width="15" height="25" as="geometry" />
        </mxCell>
        <mxCell id="75KzgoXJ_HcJJNtGDVDj-4" value="" style="triangle;whiteSpace=wrap;html=1;rounded=0;shadow=0;strokeColor=none;strokeWidth=15;fillColor=#9EB7DB;gradientColor=none;fontSize=10;fontColor=#4D4D4D;align=center;rotation=-90;" parent="x-tMEXo466bzIukRYSVs-1" vertex="1">
          <mxGeometry x="482.5" y="203" width="15" height="25" as="geometry" />
        </mxCell>
        <mxCell id="75KzgoXJ_HcJJNtGDVDj-5" value="" style="triangle;whiteSpace=wrap;html=1;rounded=0;shadow=0;strokeColor=none;strokeWidth=15;fillColor=#A9C4EB;gradientColor=none;fontSize=10;fontColor=#4D4D4D;align=center;rotation=-90;direction=west;" parent="x-tMEXo466bzIukRYSVs-1" vertex="1">
          <mxGeometry x="865" y="240" width="15" height="25" as="geometry" />
        </mxCell>
        <mxCell id="VeFoJCRVOljZTH2fcLI_-5" value="Dec 2019" style="shape=mxgraph.infographic.ribbonSimple;notch1=0;notch2=0;notch=0;html=1;fillColor=#B2CFF7;strokeColor=none;shadow=0;fontSize=14;fontColor=#FFFFFF;align=center;spacingLeft=0;fontStyle=1;opacity=90;" parent="x-tMEXo466bzIukRYSVs-1" vertex="1">
          <mxGeometry x="710" y="365" width="80" height="30" as="geometry" />
        </mxCell>
        <mxCell id="VeFoJCRVOljZTH2fcLI_-7" value="&lt;ul style=&quot;font-family: &amp;#34;helvetica&amp;#34; ; font-size: 12px&quot;&gt;&lt;li&gt;Released v1.0.0&lt;/li&gt;&lt;/ul&gt;" style="rounded=0;strokeColor=none;fillColor=none;align=left;arcSize=12;verticalAlign=top;whiteSpace=wrap;html=1;fontSize=10;spacing=0;fontColor=#4D4D4D;spacingRight=10;textOpacity=90;" parent="x-tMEXo466bzIukRYSVs-1" vertex="1">
          <mxGeometry x="419.57" y="170" width="140.87" height="43" as="geometry" />
        </mxCell>
        <mxCell id="VeFoJCRVOljZTH2fcLI_-8" value="&lt;ul style=&quot;font-family: &amp;#34;helvetica&amp;#34;&quot;&gt;&lt;li&gt;Released chubaofs-csi&lt;/li&gt;&lt;/ul&gt;" style="rounded=0;strokeColor=none;fillColor=none;align=left;arcSize=12;verticalAlign=top;whiteSpace=wrap;html=1;fontSize=12;spacing=0;fontColor=#4D4D4D;spacingTop=0;spacingRight=10;textOpacity=90;" parent="x-tMEXo466bzIukRYSVs-1" vertex="1">
          <mxGeometry x="770" y="253" width="173.5" height="49" as="geometry" />
        </mxCell>
        <mxCell id="VeFoJCRVOljZTH2fcLI_-9" value="" style="triangle;whiteSpace=wrap;html=1;rounded=0;shadow=0;strokeColor=none;strokeWidth=15;fillColor=#66B2FF;gradientColor=none;fontSize=10;fontColor=#4D4D4D;align=center;rotation=-90;direction=west;" parent="x-tMEXo466bzIukRYSVs-1" vertex="1">
          <mxGeometry x="865" y="385" width="15" height="25" as="geometry" />
        </mxCell>
        <mxCell id="VeFoJCRVOljZTH2fcLI_-10" value="&lt;ul style=&quot;font-family: &amp;#34;helvetica&amp;#34;&quot;&gt;&lt;li&gt;Released chubaofs-helm&lt;/li&gt;&lt;/ul&gt;" style="rounded=0;strokeColor=none;fillColor=none;align=left;arcSize=12;verticalAlign=top;whiteSpace=wrap;html=1;fontSize=12;spacing=0;fontColor=#4D4D4D;spacingTop=0;spacingRight=10;textOpacity=90;" parent="x-tMEXo466bzIukRYSVs-1" vertex="1">
          <mxGeometry x="772.5" y="396.63" width="200" height="49" as="geometry" />
        </mxCell>
        <mxCell id="VeFoJCRVOljZTH2fcLI_-12" value="&lt;ul style=&quot;font-family: &amp;#34;helvetica&amp;#34;&quot;&gt;&lt;li&gt;Joined CNCF Sandbox&lt;/li&gt;&lt;/ul&gt;" style="rounded=0;strokeColor=none;fillColor=none;align=left;arcSize=12;verticalAlign=top;whiteSpace=wrap;html=1;fontSize=12;spacing=0;fontColor=#4D4D4D;spacingTop=0;spacingRight=10;textOpacity=90;" parent="x-tMEXo466bzIukRYSVs-1" vertex="1">
          <mxGeometry x="649.75" y="312.13" width="200" height="49" as="geometry" />
        </mxCell>
        <mxCell id="VeFoJCRVOljZTH2fcLI_-13" value="Apr 2020" style="shape=mxgraph.infographic.ribbonSimple;notch1=0;notch2=0;notch=0;html=1;fillColor=#9EB7DB;strokeColor=none;shadow=0;fontSize=14;fontColor=#FFFFFF;align=center;spacingLeft=0;fontStyle=1;opacity=90;" parent="x-tMEXo466bzIukRYSVs-1" vertex="1">
          <mxGeometry x="600" y="365" width="80" height="30" as="geometry" />
        </mxCell>
        <mxCell id="VeFoJCRVOljZTH2fcLI_-14" value="&lt;ul style=&quot;font-family: &amp;#34;helvetica&amp;#34;&quot;&gt;&lt;li&gt;Released v2.0.0&lt;/li&gt;&lt;li&gt;Support S3 interface&lt;/li&gt;&lt;/ul&gt;" style="rounded=0;strokeColor=none;fillColor=none;align=left;arcSize=12;verticalAlign=top;whiteSpace=wrap;html=1;fontSize=12;spacing=0;fontColor=#4D4D4D;spacingTop=0;spacingRight=10;textOpacity=90;" parent="x-tMEXo466bzIukRYSVs-1" vertex="1">
          <mxGeometry x="553.25" y="410" width="200" height="60" as="geometry" />
        </mxCell>
        <mxCell id="VeFoJCRVOljZTH2fcLI_-15" value="July 2020" style="shape=mxgraph.infographic.ribbonSimple;notch1=0;notch2=0;notch=0;html=1;fillColor=#99CCFF;strokeColor=none;shadow=0;fontSize=14;fontColor=#FFFFFF;align=center;spacingLeft=0;fontStyle=1;opacity=90;" parent="x-tMEXo466bzIukRYSVs-1" vertex="1">
          <mxGeometry x="460" y="365" width="80" height="30" as="geometry" />
        </mxCell>
        <mxCell id="VeFoJCRVOljZTH2fcLI_-16" value="&lt;ul style=&quot;font-family: &amp;#34;helvetica&amp;#34;&quot;&gt;&lt;li&gt;OPPO joined as another key contributing company&lt;/li&gt;&lt;/ul&gt;" style="rounded=0;strokeColor=none;fillColor=none;align=left;arcSize=12;verticalAlign=top;whiteSpace=wrap;html=1;fontSize=12;spacing=0;fontColor=#4D4D4D;spacingTop=0;spacingRight=10;textOpacity=90;" parent="x-tMEXo466bzIukRYSVs-1" vertex="1">
          <mxGeometry x="275" y="395" width="190" height="75" as="geometry" />
        </mxCell>
        <mxCell id="VeFoJCRVOljZTH2fcLI_-17" value="&lt;ul style=&quot;font-family: &amp;#34;helvetica&amp;#34;&quot;&gt;&lt;li&gt;Most recent external user - Meizu&lt;/li&gt;&lt;/ul&gt;" style="rounded=0;strokeColor=none;fillColor=none;align=left;arcSize=12;verticalAlign=top;whiteSpace=wrap;html=1;fontSize=12;spacing=0;fontColor=#4D4D4D;spacingTop=0;spacingRight=10;textOpacity=90;" parent="x-tMEXo466bzIukRYSVs-1" vertex="1">
          <mxGeometry x="419.57" y="306.63" width="165" height="60" as="geometry" />
        </mxCell>
        <mxCell id="VeFoJCRVOljZTH2fcLI_-18" value="Aug 2020" style="shape=mxgraph.infographic.ribbonSimple;notch1=0;notch2=0;notch=0;html=1;fillColor=#B2CFF7;strokeColor=none;shadow=0;fontSize=14;fontColor=#FFFFFF;align=center;spacingLeft=0;fontStyle=1;opacity=90;" parent="x-tMEXo466bzIukRYSVs-1" vertex="1">
          <mxGeometry x="330" y="365" width="80" height="30" as="geometry" />
        </mxCell>
        <mxCell id="VeFoJCRVOljZTH2fcLI_-19" value="Jan 2021" style="shape=mxgraph.infographic.ribbonSimple;notch1=0;notch2=0;notch=0;html=1;fillColor=#9EB7DB;strokeColor=none;shadow=0;fontSize=14;fontColor=#FFFFFF;align=center;spacingLeft=0;fontStyle=1;opacity=90;" parent="x-tMEXo466bzIukRYSVs-1" vertex="1">
          <mxGeometry x="167.5" y="366.63" width="80" height="30" as="geometry" />
        </mxCell>
        <mxCell id="VeFoJCRVOljZTH2fcLI_-20" value="&lt;ul style=&quot;font-family: &amp;#34;helvetica&amp;#34;&quot;&gt;&lt;li&gt;Next release: optimized cross zone feature to improve robustness&lt;/li&gt;&lt;/ul&gt;" style="rounded=0;strokeColor=none;fillColor=none;align=left;arcSize=12;verticalAlign=top;whiteSpace=wrap;html=1;fontSize=12;spacing=0;fontColor=#4D4D4D;spacingTop=0;spacingRight=10;textOpacity=90;" parent="x-tMEXo466bzIukRYSVs-1" vertex="1">
          <mxGeometry x="80" y="310" width="240" height="75" as="geometry" />
        </mxCell>
        <mxCell id="VeFoJCRVOljZTH2fcLI_-22" value="" style="triangle;whiteSpace=wrap;html=1;rounded=0;shadow=0;strokeColor=none;strokeWidth=15;fillColor=#B2CFF7;gradientColor=none;fontSize=10;fontColor=#4D4D4D;align=center;rotation=90;direction=west;" parent="x-tMEXo466bzIukRYSVs-1" vertex="1">
          <mxGeometry x="742.25" y="350" width="15" height="25" as="geometry" />
        </mxCell>
        <mxCell id="VeFoJCRVOljZTH2fcLI_-3" value="Nov 2019" style="shape=mxgraph.infographic.ribbonSimple;notch1=0;notch2=0;notch=0;html=1;fillColor=#66B2FF;strokeColor=none;shadow=0;fontSize=14;fontColor=#FFFFFF;align=center;spacingLeft=0;fontStyle=1;opacity=90;" parent="x-tMEXo466bzIukRYSVs-1" vertex="1">
          <mxGeometry x="832.5" y="365" width="80" height="30" as="geometry" />
        </mxCell>
        <mxCell id="VeFoJCRVOljZTH2fcLI_-23" value="" style="triangle;whiteSpace=wrap;html=1;rounded=0;shadow=0;strokeColor=none;strokeWidth=15;fillColor=#99CCFF;gradientColor=none;fontSize=10;fontColor=#4D4D4D;align=center;rotation=90;direction=west;" parent="x-tMEXo466bzIukRYSVs-1" vertex="1">
          <mxGeometry x="492.5" y="350" width="15" height="25" as="geometry" />
        </mxCell>
        <mxCell id="VeFoJCRVOljZTH2fcLI_-24" value="" style="triangle;whiteSpace=wrap;html=1;rounded=0;shadow=0;strokeColor=none;strokeWidth=15;fillColor=#9EB7DB;gradientColor=none;fontSize=10;fontColor=#4D4D4D;align=center;rotation=90;direction=west;" parent="x-tMEXo466bzIukRYSVs-1" vertex="1">
          <mxGeometry x="200" y="350" width="15" height="25" as="geometry" />
        </mxCell>
        <mxCell id="VeFoJCRVOljZTH2fcLI_-25" value="" style="triangle;whiteSpace=wrap;html=1;rounded=0;shadow=0;strokeColor=none;strokeWidth=15;fillColor=#9EB7DB;gradientColor=none;fontSize=10;fontColor=#4D4D4D;align=center;rotation=-90;direction=west;" parent="x-tMEXo466bzIukRYSVs-1" vertex="1">
          <mxGeometry x="632.5" y="385" width="15" height="25" as="geometry" />
        </mxCell>
        <mxCell id="VeFoJCRVOljZTH2fcLI_-26" value="" style="triangle;whiteSpace=wrap;html=1;rounded=0;shadow=0;strokeColor=none;strokeWidth=15;fillColor=#B2CFF7;gradientColor=none;fontSize=10;fontColor=#4D4D4D;align=center;rotation=-90;direction=west;" parent="x-tMEXo466bzIukRYSVs-1" vertex="1">
          <mxGeometry x="362.5" y="385" width="15" height="25" as="geometry" />
        </mxCell>
      </root>
    </mxGraphModel>
  </diagram>
</mxfile>
